<svg width="100%" height="100%" viewBox="0 0 24 24" fill="none" xmlns="http://www.w3.org/2000/svg">
 <path d="M12 13.5C13.933 13.5 15.5 11.933 15.5 10C15.5 8.067 13.933 6.5 12 6.5C10.067 6.5 8.5 8.067 8.5 10C8.5 11.933 10.067 13.5 12 13.5ZM8 21C9.933 21 11.5 19.433 11.5 17.5C11.5 15.567 9.933 14 8 14C6.067 14 4.5 15.567 4.5 17.5C4.5 19.433 6.067 21 8 21ZM16 21C17.933 21 19.5 19.433 19.5 17.5C19.5 15.567 17.933 14 16 14C14.067 14 12.5 15.567 12.5 17.5C12.5 19.433 14.067 21 16 21Z" stroke="currentColor" stroke-width="2" stroke-linecap="round" stroke-linejoin="round"/>
</svg>
