<svg width="100%" height="100%" viewBox="0 0 24 24" fill="none" xmlns="http://www.w3.org/2000/svg">
 <g transform="translate(1, 2)">
  <path d="M12 5.00022L10.8845 2.76913C10.5634 2.12702 10.4029 1.80595 10.1634 1.57138C9.95158 1.36395 9.69633 1.20619 9.41608 1.10952C9.09917 1.00022 8.74021 1.00022 8.02229 1.00022H4.2C3.0799 1.00022 2.51984 1.00022 2.09202 1.2182C1.7157 1.40995 1.40974 1.71591 1.21799 2.09223C1 2.52006 1 3.08011 1 4.20022V5.00022M1 5.00022H16.2C17.8802 5.00022 18.7202 5.00022 19.362 5.3272C19.9265 5.61482 20.3854 6.07376 20.673 6.63824C21 7.27998 21 8.12006 21 9.80022V14.2002C21 15.8804 21 16.7205 20.673 17.3622C20.3854 17.9267 19.9265 18.3856 19.362 18.6732C18.7202 19.0002 17.8802 19.0002 16.2 19.0002H5.8C4.11984 19.0002 3.27977 19.0002 2.63803 18.6732C2.07354 18.3856 1.6146 17.9267 1.32698 17.3622C1 16.7205 1 15.8804 1 14.2002V5.00022ZM8 12.0002L10 14.0002L14.5 9.50022" stroke="currentColor" stroke-width="2" stroke-linecap="round" stroke-linejoin="round"/>
 </g>
</svg>
