<svg width="100%" height="100%" viewBox="0 0 24 24" fill="none" xmlns="http://www.w3.org/2000/svg">
 <path d="M21 2L19 4M11.39 11.61C11.9 12.12 12.31 12.73 12.59 13.41C12.87 14.08 13.01 14.8 13.01 15.53C13.01 16.25 12.87 16.97 12.59 17.65C12.31 18.32 11.9 18.93 11.39 19.44C10.88 19.96 10.26 20.37 9.59 20.64C8.92 20.92 8.2 21.07 7.47 21.07C6.75 21.07 6.03 20.92 5.35 20.64C4.68 20.37 4.07 19.96 3.56 19.44C2.52 18.41 1.93 17 1.93 15.53C1.93 14.06 2.52 12.65 3.56 11.61C4.59 10.57 6 9.99 7.47 9.99C8.94 9.99 10.35 10.57 11.39 11.61ZM11.39 11.61L15.5 7.5M15.5 7.5L18.5 10.5L22 7L19 4M15.5 7.5L19 4" stroke="currentColor" stroke-width="2" stroke-linecap="round" stroke-linejoin="round"/>
</svg>
