<svg width="100%" height="100%" viewBox="0 0 24 24" fill="none" xmlns="http://www.w3.org/2000/svg">
 <path d="M7 8.5H12M7 12H15M9.68387 19H16.2C17.8802 19 18.7202 19 19.362 18.673C19.9265 18.3854 20.3854 17.9265 20.673 17.362C21 16.7202 21 15.8802 21 14.2V8.8C21 7.11984 21 6.27976 20.673 5.63803C20.3854 5.07354 19.9265 4.6146 19.362 4.32698C18.7202 4 17.8802 4 16.2 4H7.8C6.11984 4 5.27976 4 4.63803 4.32698C4.07354 4.6146 3.6146 5.07354 3.32698 5.63803C3 6.27976 3 7.11984 3 8.8V20.3355C3 20.8684 3 21.1348 3.10923 21.2716C3.20422 21.3906 3.34827 21.4599 3.50054 21.4597C3.67563 21.4595 3.88367 21.2931 4.29976 20.9602L6.68521 19.0518C7.17252 18.662 7.41617 18.4671 7.68749 18.3285C7.9282 18.2055 8.18443 18.1156 8.44921 18.0613C8.74767 18 9.0597 18 9.68387 19Z" stroke="currentColor" stroke-width="2" stroke-linecap="round" stroke-linejoin="round"/>
</svg>
