<svg width="252" height="277" viewBox="0 0 252 277" fill="none" xmlns="http://www.w3.org/2000/svg">
<g clip-path="url(#clip0_17_2930)">
<path d="M67.788 0H209.21C211.07 0 212.854 0.738831 214.169 2.05396C215.484 3.36909 216.223 5.15279 216.223 7.01266V97.0084C216.223 98.8683 215.484 100.652 214.169 101.967C212.854 103.282 211.07 104.021 209.21 104.021H67.788C65.9282 104.021 64.1445 103.282 62.8294 101.967C61.5142 100.652 60.7754 98.8683 60.7754 97.0084V7.01266C60.7754 5.15279 61.5142 3.36909 62.8294 2.05396C64.1445 0.738831 65.9282 0 67.788 0Z" fill="#BADDF6"/>
<path d="M25.7119 24.5444H167.134C168.994 24.5444 170.777 25.2833 172.093 26.5984C173.408 27.9135 174.146 29.6972 174.146 31.5571V121.553C174.146 123.413 173.408 125.196 172.093 126.512C170.777 127.827 168.994 128.566 167.134 128.566H25.7119C23.852 128.566 22.0683 127.827 20.7532 126.512C19.4381 125.196 18.6992 123.413 18.6992 121.553V31.5571C18.6992 29.6972 19.4381 27.9135 20.7532 26.5984C22.0683 25.2833 23.852 24.5444 25.7119 24.5444Z" fill="url(#paint0_linear_17_2930)"/>
<path d="M23.3736 262.974C17.174 262.974 11.2284 260.512 6.84463 256.128C2.46087 251.745 -0.00195312 245.799 -0.00195312 239.599V139.084C-0.00195312 132.885 2.46087 126.938 6.84463 122.555C11.2284 118.171 17.174 115.709 23.3736 115.709H111.382C126.17 115.637 126.226 101.007 126.226 101.007V100.515C126.226 96.7948 127.703 93.2274 130.334 90.5971C132.964 87.9668 136.531 86.4893 140.251 86.4893H219.728C223.448 86.4893 227.015 87.9668 229.645 90.5971C232.276 93.2274 233.753 96.7948 233.753 100.515V239.599C233.753 245.799 231.29 251.745 226.907 256.128C222.523 260.512 216.577 262.974 210.378 262.974H23.3736Z" fill="url(#paint1_linear_17_2930)"/>
<path opacity="0.81" d="M33.8924 142.59H92.3312C94.501 142.59 96.582 143.452 98.1163 144.987C99.6507 146.521 100.513 148.602 100.513 150.772V156.616C100.513 158.785 99.6507 160.866 98.1163 162.401C96.582 163.935 94.501 164.797 92.3312 164.797H33.8924C31.7225 164.797 29.6415 163.935 28.1072 162.401C26.5729 160.866 25.7109 158.785 25.7109 156.616V150.772C25.7109 148.602 26.5729 146.521 28.1072 144.987C29.6415 143.452 31.7225 142.59 33.8924 142.59Z" fill="url(#paint2_linear_17_2930)"/>
<path d="M225.572 155.447H155.446C141.245 155.447 129.732 166.959 129.732 181.16V251.287C129.732 265.488 141.245 277 155.446 277H225.572C239.773 277 251.285 265.488 251.285 251.287V181.16C251.285 166.959 239.773 155.447 225.572 155.447Z" fill="url(#paint3_linear_17_2930)"/>
<path d="M225.572 156.032H155.445C141.567 156.032 130.316 167.282 130.316 181.16V251.287C130.316 265.165 141.567 276.416 155.445 276.416H225.572C239.45 276.416 250.7 265.165 250.7 251.287V181.16C250.7 167.282 239.45 156.032 225.572 156.032Z" stroke="white" stroke-opacity="0.5"/>
<path opacity="0.75" d="M186.122 241.362L171.806 223.505C171.162 222.693 170.762 221.714 170.653 220.683C170.544 219.652 170.731 218.611 171.19 217.682C171.649 216.753 172.363 215.974 173.248 215.435C174.133 214.895 175.153 214.618 176.19 214.636H184.23V192.508C184.23 191.578 184.599 190.686 185.257 190.029C185.914 189.371 186.806 189.001 187.736 189.001H193.978C194.908 189.001 195.8 189.371 196.458 190.029C197.115 190.686 197.484 191.578 197.484 192.508V214.629H204.825C205.861 214.611 206.882 214.888 207.767 215.427C208.653 215.966 209.366 216.746 209.826 217.675C210.285 218.605 210.471 219.645 210.362 220.676C210.252 221.707 209.853 222.685 209.209 223.497L194.892 241.356C194.363 242.008 193.694 242.535 192.935 242.896C192.176 243.258 191.346 243.445 190.505 243.445C189.665 243.445 188.834 243.258 188.075 242.896C187.317 242.535 186.648 242.008 186.119 241.356L186.122 241.362Z" fill="#2B4BFF"/>
<path opacity="0.83" d="M40.3197 39.7383H83.5644C85.5793 39.7383 87.5116 40.5387 88.9363 41.9634C90.3611 43.3881 91.1615 45.3205 91.1615 47.3353C91.1615 49.3502 90.3611 51.2825 88.9363 52.7073C87.5116 54.132 85.5793 54.9324 83.5644 54.9324H40.3197C38.3048 54.9324 36.3725 54.132 34.9478 52.7073C33.5231 51.2825 32.7227 49.3502 32.7227 47.3353C32.7227 45.3205 33.5231 43.3881 34.9478 41.9634C36.3725 40.5387 38.3048 39.7383 40.3197 39.7383Z" fill="url(#paint4_linear_17_2930)"/>
<path opacity="0.5" d="M35.6446 67.7891H85.902C86.6769 67.7891 87.4201 68.0969 87.9681 68.6449C88.5161 69.1928 88.8239 69.9361 88.8239 70.711C88.8239 71.486 88.5161 72.2292 87.9681 72.7771C87.4201 73.3251 86.6769 73.6329 85.902 73.6329H35.6446C34.8697 73.6329 34.1264 73.3251 33.5785 72.7771C33.0305 72.2292 32.7227 71.486 32.7227 70.711C32.7227 69.9361 33.0305 69.1928 33.5785 68.6449C34.1264 68.0969 34.8697 67.7891 35.6446 67.7891Z" fill="#11171C"/>
<path opacity="0.5" d="M35.6446 79.4771H71.8767C72.6516 79.4771 73.3948 79.7849 73.9428 80.3329C74.4908 80.8808 74.7986 81.624 74.7986 82.399C74.7986 83.1739 74.4908 83.9171 73.9428 84.4651C73.3948 85.0131 72.6516 85.3209 71.8767 85.3209H35.6446C34.8697 85.3209 34.1264 85.0131 33.5785 84.4651C33.0305 83.9171 32.7227 83.1739 32.7227 82.399C32.7227 81.624 33.0305 80.8808 33.5785 80.3329C34.1264 79.7849 34.8697 79.4771 35.6446 79.4771Z" fill="#11171C"/>
<path opacity="0.5" d="M99.9278 67.7891H111.616C112.391 67.7891 113.134 68.0969 113.682 68.6449C114.23 69.1928 114.538 69.9361 114.538 70.711C114.538 71.486 114.23 72.2292 113.682 72.7771C113.134 73.3251 112.391 73.6329 111.616 73.6329H99.9278C99.1529 73.6329 98.4096 73.3251 97.8617 72.7771C97.3137 72.2292 97.0059 71.486 97.0059 70.711C97.0059 69.9361 97.3137 69.1928 97.8617 68.6449C98.4096 68.0969 99.1529 67.7891 99.9278 67.7891Z" fill="#11171C"/>
<path opacity="0.5" d="M35.6446 91.1646H43.826C44.601 91.1646 45.3442 91.4724 45.8922 92.0204C46.4401 92.5683 46.748 93.3115 46.748 94.0865C46.748 94.8614 46.4401 95.6046 45.8922 96.1526C45.3442 96.7006 44.601 97.0084 43.826 97.0084H35.6446C34.8697 97.0084 34.1264 96.7006 33.5785 96.1526C33.0305 95.6046 32.7227 94.8614 32.7227 94.0865C32.7227 93.3115 33.0305 92.5683 33.5785 92.0204C34.1264 91.4724 34.8697 91.1646 35.6446 91.1646Z" fill="#11171C"/>
</g>
<defs>
<linearGradient id="paint0_linear_17_2930" x1="79.6345" y1="25.8967" x2="94.7541" y2="122.592" gradientUnits="userSpaceOnUse">
<stop stop-color="#E4F3FE"/>
<stop offset="1" stop-color="#D1E5F3"/>
</linearGradient>
<linearGradient id="paint1_linear_17_2930" x1="5.99903" y1="125.5" x2="103.201" y2="251.784" gradientUnits="userSpaceOnUse">
<stop stop-color="#747DFF"/>
<stop offset="1" stop-color="#2B4BFF"/>
</linearGradient>
<linearGradient id="paint2_linear_17_2930" x1="51.8915" y1="142.08" x2="54.2632" y2="166.92" gradientUnits="userSpaceOnUse">
<stop stop-color="white"/>
<stop offset="1" stop-color="#E1F2FF"/>
</linearGradient>
<linearGradient id="paint3_linear_17_2930" x1="172.276" y1="152.652" x2="212.267" y2="277" gradientUnits="userSpaceOnUse">
<stop stop-color="#EAF6FF"/>
<stop offset="1" stop-color="#C6E1F5"/>
</linearGradient>
<linearGradient id="paint4_linear_17_2930" x1="34.1836" y1="40.8323" x2="40.9961" y2="67.1476" gradientUnits="userSpaceOnUse">
<stop stop-color="#A191FF"/>
<stop offset="1" stop-color="#516CFF"/>
</linearGradient>
<clipPath id="clip0_17_2930">
<rect width="251.286" height="277" fill="white"/>
</clipPath>
</defs>
</svg>
