
<svg width="311" height="269" viewBox="0 0 311 269" fill="none" xmlns="http://www.w3.org/2000/svg" role="img" aria-label="User login">
  <rect x="8" y="24" width="222" height="222" rx="52" fill="url(#login_tile)"></rect>
  <circle cx="119" cy="103" r="31" fill="url(#login_avatar)"></circle>
  <path d="M67 200 C67 166 90 149 119 149 C148 149 171 166 171 200 Z" fill="url(#login_avatar)"></path>
  <g filter="url(#login_shadow)">
    <rect x="150" y="108" width="155" height="155" rx="42" fill="url(#login_badge)"></rect>
    <rect x="150.5" y="108.5" width="154" height="154" rx="41.5" stroke="white" stroke-opacity="0.5"></rect>
  </g>
  <g fill="#2B4BFF" fill-opacity="0.82">
    <path d="M188 179 H214 V169 L233 186 L214 203 V193 H188 Z"></path>
    <path d="M239 151 H259 V220 H239 V209 H249 V162 H239 Z"></path>
  </g>
  <defs>
    <filter id="login_shadow" x="142" y="100" width="171" height="171" filterUnits="userSpaceOnUse" color-interpolation-filters="sRGB">
      <feFlood flood-opacity="0" result="BackgroundImageFix"></feFlood>
      <feColorMatrix in="SourceAlpha" type="matrix" values="0 0 0 0 0 0 0 0 0 0 0 0 0 0 0 0 0 0 127 0" result="hardAlpha"></feColorMatrix>
      <feOffset dx="-2" dy="-2"></feOffset>
      <feGaussianBlur stdDeviation="3"></feGaussianBlur>
      <feColorMatrix type="matrix" values="0 0 0 0 0 0 0 0 0 0 0 0 0 0 0 0 0 0 0.078 0"></feColorMatrix>
      <feBlend mode="normal" in2="BackgroundImageFix" result="effect1_dropShadow"></feBlend>
      <feBlend mode="normal" in="SourceGraphic" in2="effect1_dropShadow" result="shape"></feBlend>
    </filter>
    <linearGradient id="login_tile" x1="60" y1="24" x2="185" y2="246" gradientUnits="userSpaceOnUse">
      <stop stop-color="#7A64FF"></stop>
      <stop offset="0.481" stop-color="#415EFF"></stop>
      <stop offset="1" stop-color="#2B4BFF"></stop>
    </linearGradient>
    <linearGradient id="login_avatar" x1="100" y1="72" x2="130" y2="200" gradientUnits="userSpaceOnUse">
      <stop stop-color="#EAF6FF"></stop>
      <stop offset="1" stop-color="#C6E1F5"></stop>
    </linearGradient>
    <linearGradient id="login_badge" x1="193" y1="105" x2="257" y2="263" gradientUnits="userSpaceOnUse">
      <stop stop-color="#C8D6F5"></stop>
      <stop offset="1" stop-color="#B6CCFC"></stop>
    </linearGradient>
  </defs>
</svg>