<svg width="311" height="269" viewBox="0 0 311 269" fill="none" xmlns="http://www.w3.org/2000/svg">
<g clip-path="url(#clip0_17_2767)">
<path d="M123.043 246.222C190.998 246.222 246.086 191.104 246.086 123.111C246.086 55.1187 190.998 0 123.043 0C55.0882 0 0 55.1187 0 123.111C0 191.104 55.0882 246.222 123.043 246.222Z" fill="url(#paint0_linear_17_2767)"/>
<mask id="mask0_17_2767" style="mask-type:luminance" maskUnits="userSpaceOnUse" x="0" y="0" width="247" height="247">
<path d="M123.043 246.222C190.998 246.222 246.086 191.104 246.086 123.111C246.086 55.1187 190.998 0 123.043 0C55.0882 0 0 55.1187 0 123.111C0 191.104 55.0882 246.222 123.043 246.222Z" fill="white"/>
</mask>
<g mask="url(#mask0_17_2767)">
<path opacity="0.77" d="M206.791 198.326C203.4 187.661 211.376 176.767 203.959 159.122C196.542 141.477 190.524 145.73 184.325 134.944C178.126 124.159 185.887 120.568 179.165 115.976C175.679 113.595 172.615 115.463 169.434 117.329C166.478 119.064 163.422 120.799 159.83 119.131C152.369 115.667 153.317 106.25 147.467 100.365C141.616 94.4796 107.864 101.06 109.737 86.2847C111.61 71.5091 161.369 52.1556 168.568 52.1602C175.768 52.1647 179.291 64.7585 191.038 66.9403C196.782 68.0073 203.408 65.3445 209.862 62.6736C216.61 59.8865 223.172 57.1006 228.346 58.5768C238.469 61.4653 318.417 137.044 318.417 137.044L233.795 216.382C217.533 201.777 210.185 208.99 206.791 198.326ZM89.7868 209.651C81.1954 208.397 67.3428 194.749 59.86 181.648C52.3772 168.547 64.3032 163.962 59.86 157.254C55.4168 150.545 41.7636 140.597 39.9088 136.735C38.0541 132.873 45.6577 126.269 39.9088 118.155C34.16 110.041 25.776 118.291 16.9089 104.291C8.04187 90.2904 4.43945 62.1516 4.43945 62.1516L67.6197 -12.4321L79.4945 6.62274L96.3616 18.6454C96.3616 18.6454 120.111 31.7967 119.16 40.802C118.209 49.8074 94.4248 52.8977 92.5586 54.6634C90.6925 56.4292 92.9004 63.8136 84.2419 71.2994C75.5833 78.7852 65.0563 75.3199 57.9198 84.6068C57.9198 84.6068 56.8386 90.2676 56.2849 96.234C55.7312 102.2 55.7073 108.452 55.7073 108.452C57.7979 111.521 60.5891 110.013 64.2223 108.504C67.8134 107.014 72.2247 105.522 77.5975 108.452C88.4037 114.344 98.9341 132.019 98.9341 132.019C98.9341 132.019 123.043 133.197 125.814 140.613C128.586 148.03 111.874 158.585 110.016 161.686C108.158 164.786 111.47 169.527 107.522 175.765C103.574 182.002 99.2782 177.835 94.222 186.639C89.3595 195.105 97.6911 209.721 90.6993 209.722C90.3938 209.72 90.0889 209.697 89.7868 209.651Z" fill="url(#paint1_linear_17_2767)" fill-opacity="0.8"/>
</g>
<g filter="url(#filter0_d_17_2767)">
<path d="M284.822 104.873H173.172C158.7 104.873 146.969 116.611 146.969 131.091V242.803C146.969 257.282 158.7 269.021 173.172 269.021H284.822C299.294 269.021 311.026 257.282 311.026 242.803V131.091C311.026 116.611 299.294 104.873 284.822 104.873Z" fill="url(#paint2_linear_17_2767)"/>
<path d="M284.821 105.442H173.171C159.014 105.442 147.537 116.925 147.537 131.091V242.802C147.537 256.968 159.014 268.451 173.171 268.451H284.821C298.978 268.451 310.455 256.968 310.455 242.802V131.091C310.455 116.925 298.978 105.442 284.821 105.442Z" stroke="white" stroke-opacity="0.5"/>
</g>
<path d="M266.209 220.077L240.945 150.478C239.851 147.629 238.429 146.867 235.257 146.867H222.789C219.617 146.867 218.195 147.524 217.102 150.697L191.946 220.077C190.852 223.032 191.513 224.564 194.899 224.564H206.383C211.852 224.564 213.274 223.36 214.367 219.968L216.883 212.089H240.502L243.018 219.968C243.898 223.36 245.538 224.564 251.225 224.564H263.038C266.319 224.564 267.303 223.032 266.209 220.077ZM231.539 182.104L235.585 194.908H221.914L225.961 181.995C227.324 177.039 228.023 171.924 228.039 166.784H229.132C229.355 171.965 230.162 177.104 231.539 182.104Z" fill="#2B4BFF" fill-opacity="0.76"/>
</g>
<defs>
<filter id="filter0_d_17_2767" x="138.969" y="96.8726" width="176.057" height="176.148" filterUnits="userSpaceOnUse" color-interpolation-filters="sRGB">
<feFlood flood-opacity="0" result="BackgroundImageFix"/>
<feColorMatrix in="SourceAlpha" type="matrix" values="0 0 0 0 0 0 0 0 0 0 0 0 0 0 0 0 0 0 127 0" result="hardAlpha"/>
<feOffset dx="-2" dy="-2"/>
<feGaussianBlur stdDeviation="3"/>
<feColorMatrix type="matrix" values="0 0 0 0 0 0 0 0 0 0 0 0 0 0 0 0 0 0 0.078 0"/>
<feBlend mode="normal" in2="BackgroundImageFix" result="effect1_dropShadow_17_2767"/>
<feBlend mode="normal" in="SourceGraphic" in2="effect1_dropShadow_17_2767" result="shape"/>
</filter>
<linearGradient id="paint0_linear_17_2767" x1="63.244" y1="2.78205e-06" x2="195.749" y2="233.109" gradientUnits="userSpaceOnUse">
<stop stop-color="#7A64FF"/>
<stop offset="0.481" stop-color="#415EFF"/>
<stop offset="1" stop-color="#2B4BFF"/>
</linearGradient>
<linearGradient id="paint1_linear_17_2767" x1="102.401" y1="-12.4321" x2="134.26" y2="220.105" gradientUnits="userSpaceOnUse">
<stop stop-color="#EAF6FF"/>
<stop offset="1" stop-color="#C6E1F5"/>
</linearGradient>
<linearGradient id="paint2_linear_17_2767" x1="190.608" y1="102.082" x2="254.16" y2="268.997" gradientUnits="userSpaceOnUse">
<stop stop-color="#C8D6F5"/>
<stop offset="1" stop-color="#B6CCFC"/>
</linearGradient>
<clipPath id="clip0_17_2767">
<rect width="311" height="269" fill="white"/>
</clipPath>
</defs>
</svg>
