<svg width="266" height="312" viewBox="0 0 266 312" fill="none" xmlns="http://www.w3.org/2000/svg">
<g clip-path="url(#clip0_17_3200)">
<path d="M256.962 160.733L234.072 125.495C229.256 118.081 219.341 115.975 211.928 120.791L75.1706 209.626C67.7567 214.442 65.6506 224.356 70.4666 231.77L93.3566 267.008C98.1725 274.422 108.087 276.528 115.501 271.712L252.258 182.877C259.671 178.061 261.777 168.147 256.962 160.733Z" fill="#ABB8FE"/>
<path d="M87.7539 201.452L128.084 263.538L59.2859 308.228C57.7283 309.239 55.8325 309.591 54.0157 309.205C52.1988 308.819 50.6097 307.727 49.5979 306.17L16.8979 255.83C15.8861 254.272 15.5345 252.376 15.9205 250.559C16.3064 248.743 17.3983 247.153 18.9559 246.142L87.7539 201.452Z" fill="#DEE3FF"/>
<path d="M87.6074 202.144L127.392 263.391L59.0139 307.808C57.5676 308.748 55.8072 309.074 54.1201 308.716C52.4331 308.357 50.9575 307.343 50.0179 305.897L17.3179 255.557C16.8527 254.841 16.5331 254.04 16.3774 253.2C16.2217 252.361 16.2328 251.499 16.4103 250.663C16.7687 248.976 17.7826 247.501 19.2289 246.561L87.6074 202.144Z" stroke="#C2C7E6" stroke-width="1.00047"/>
<path d="M83.8812 246.915L70.2562 225.94C69.0522 224.087 66.5736 223.56 64.7202 224.764C62.8667 225.968 62.3402 228.447 63.5442 230.3L77.1692 251.275C78.3732 253.129 80.8517 253.655 82.7052 252.451C84.5586 251.247 85.0852 248.769 83.8812 246.915Z" fill="black" fill-opacity="0.2"/>
<path d="M64.4623 246.407L56.8323 234.661C55.6284 232.807 53.1498 232.281 51.2963 233.485C49.4429 234.689 48.9164 237.167 50.1203 239.021L57.7503 250.767C58.9543 252.62 61.4329 253.147 63.2863 251.943C65.1398 250.739 65.6663 248.26 64.4623 246.407Z" fill="black" fill-opacity="0.2"/>
<path d="M42.2325 248.916C44.086 247.712 44.6125 245.234 43.4085 243.38C42.2045 241.527 39.726 241 37.8725 242.204C36.019 243.408 35.4925 245.887 36.6965 247.74C37.9005 249.594 40.379 250.12 42.2325 248.916Z" fill="black" fill-opacity="0.2"/>
<path d="M224.733 101.9L195.034 72.2019C188.786 65.9535 178.655 65.9535 172.407 72.2019L57.1486 187.46C50.9002 193.709 50.9002 203.839 57.1486 210.088L86.8471 239.786C93.0955 246.035 103.226 246.035 109.474 239.786L224.733 124.528C230.981 118.279 230.981 108.149 224.733 101.9Z" fill="#8799FE"/>
<path d="M67.7539 176.854L120.08 229.18L62.0971 287.163C60.7843 288.476 59.0038 289.213 57.1473 289.213C55.2908 289.213 53.5103 288.476 52.1976 287.163L9.77115 244.737C8.4584 243.424 7.7209 241.644 7.7209 239.787C7.7209 237.93 8.4584 236.15 9.77115 234.837L67.7539 176.854Z" fill="#DEE3FF"/>
<path d="M67.7539 177.562L119.373 229.18L61.7435 286.81C60.5245 288.029 58.8712 288.713 57.1473 288.713C55.4234 288.713 53.7701 288.029 52.5511 286.81L10.1247 244.383C9.52112 243.78 9.04234 243.063 8.71568 242.274C8.38902 241.486 8.2209 240.641 8.2209 239.787C8.2209 238.063 8.90572 236.41 10.1247 235.191L67.7539 177.562Z" stroke="#C2C7E6"/>
<path d="M98.867 224.938L67.0472 193.118C65.4851 191.556 62.9524 191.556 61.3903 193.118C59.8282 194.68 59.8282 197.213 61.3903 198.775L93.2101 230.595C94.7722 232.157 97.3049 232.157 98.867 230.595C100.429 229.033 100.429 226.5 98.867 224.938Z" fill="black" fill-opacity="0.2"/>
<path d="M73.4104 222.109L55.7327 204.431C54.1706 202.869 51.638 202.869 50.0759 204.431C48.5138 205.994 48.5138 208.526 50.0759 210.088L67.7535 227.766C69.3156 229.328 71.8483 229.328 73.4104 227.766C74.9725 226.204 74.9725 223.671 73.4104 222.109Z" fill="black" fill-opacity="0.2"/>
<path d="M54.3197 225.645L44.4202 215.745C42.8581 214.183 40.3255 214.183 38.7634 215.745C37.2013 217.308 37.2013 219.84 38.7634 221.402L48.6629 231.302C50.225 232.864 52.7576 232.864 54.3197 231.302C55.8818 229.74 55.8818 227.207 54.3197 225.645Z" fill="black" fill-opacity="0.2"/>
<path d="M33.1058 232.716C34.6679 231.154 34.6679 228.621 33.1058 227.059C31.5437 225.497 29.011 225.497 27.4489 227.059C25.8868 228.621 25.8868 231.154 27.4489 232.716C29.011 234.278 31.5437 234.278 33.1058 232.716Z" fill="black" fill-opacity="0.2"/>
<path d="M182.15 51.1173L145.4 30.7473C137.668 26.4616 127.926 29.2553 123.64 36.9873L44.5854 179.612C40.2997 187.344 43.0934 197.087 50.8254 201.372L87.5754 221.742C95.3074 226.028 105.05 223.234 109.335 215.502L188.39 72.8773C192.676 65.1453 189.882 55.403 182.15 51.1173Z" fill="#6179FF"/>
<path d="M51.8594 166.488L116.609 202.378L76.8394 274.128C75.939 275.753 74.4301 276.953 72.6448 277.465C70.8594 277.977 68.9438 277.759 67.3194 276.858L14.8194 247.758C13.1949 246.858 11.9947 245.349 11.4827 243.564C10.9707 241.778 11.189 239.863 12.0894 238.238L51.8594 166.488Z" fill="#DEE3FF"/>
<path d="M52.0547 167.168L115.93 202.573L76.4022 273.885C75.5661 275.394 74.165 276.508 72.5072 276.984C70.8494 277.459 69.0706 277.257 67.5622 276.42L15.0622 247.32C14.3153 246.906 13.6573 246.349 13.1256 245.681C12.594 245.013 12.1993 244.246 11.9639 243.425C11.4885 241.768 11.6911 239.989 12.5272 238.48L52.0547 167.168Z" stroke="#C2C7E6" stroke-width="1.00042"/>
<path d="M69.7793 208.448L47.9043 196.323C45.9713 195.252 43.5357 195.95 42.4643 197.883C41.3929 199.816 42.0913 202.252 44.0243 203.323L65.8993 215.448C67.8323 216.52 70.2679 215.821 71.3393 213.888C72.4107 211.955 71.7123 209.52 69.7793 208.448Z" fill="black" fill-opacity="0.2"/>
<path d="M52.3945 217.113L40.1445 210.323C38.2115 209.252 35.776 209.95 34.7045 211.883C33.6331 213.816 34.3315 216.252 36.2645 217.323L48.5145 224.113C50.4475 225.185 52.8831 224.486 53.9545 222.553C55.026 220.62 54.3275 218.185 52.3945 217.113Z" fill="black" fill-opacity="0.2"/>
<path d="M33.9448 229.763C35.0162 227.83 34.3178 225.395 32.3848 224.323C30.4518 223.252 28.0162 223.95 26.9448 225.883C25.8733 227.816 26.5718 230.252 28.5048 231.323C30.4378 232.395 32.8733 231.696 33.9448 229.763Z" fill="black" fill-opacity="0.2"/>
<path d="M125.49 21.6891L85.1165 10.1123C76.6223 7.67666 67.7618 12.5881 65.3261 21.0823L20.3972 177.768C17.9616 186.262 22.873 195.123 31.3672 197.558L71.7402 209.135C80.2345 211.571 89.0949 206.659 91.5306 198.165L136.459 41.4795C138.895 32.9853 133.984 24.1248 125.49 21.6891Z" fill="#4864FF"/>
<path d="M24.5312 163.35L95.6646 183.747L73.0624 262.571C72.5506 264.355 71.3509 265.864 69.7272 266.764C68.1034 267.664 66.1887 267.882 64.4041 267.37L6.72836 250.832C4.94376 250.32 3.43554 249.12 2.53548 247.497C1.63542 245.873 1.41726 243.958 1.92899 242.174L24.5312 163.35Z" fill="#DEE3FF"/>
<path d="M24.875 163.969L95.0471 184.09L72.5827 262.433C72.1075 264.09 70.9935 265.491 69.4857 266.326C67.978 267.162 66.1999 267.365 64.5428 266.89L6.86711 250.351C6.04659 250.116 5.28044 249.722 4.61241 249.19C3.94438 248.659 3.38756 248.001 2.97373 247.254C2.13796 245.747 1.93538 243.969 2.41056 242.312L24.875 163.969Z" stroke="#C2C7E6"/>
<path d="M51.4196 200.188L27.388 193.297C25.2645 192.688 23.0493 193.916 22.4404 196.04C21.8315 198.163 23.0594 200.379 25.1829 200.987L49.2145 207.878C51.338 208.487 53.5531 207.259 54.1621 205.136C54.771 203.012 53.5431 200.797 51.4196 200.188Z" fill="black" fill-opacity="0.2"/>
<path d="M36.4355 212.537L22.9779 208.678C20.8543 208.069 18.6392 209.297 18.0303 211.42C17.4213 213.544 18.6492 215.759 20.7728 216.368L34.2304 220.227C36.354 220.836 38.5691 219.608 39.178 217.484C39.7869 215.361 38.5591 213.146 36.4355 212.537Z" fill="black" fill-opacity="0.2"/>
<path d="M21.3102 229.005C21.9191 226.882 20.6913 224.667 18.5677 224.058C16.4441 223.449 14.229 224.677 13.6201 226.8C13.0112 228.924 14.239 231.139 16.3626 231.748C18.4862 232.357 20.7013 231.129 21.3102 229.005Z" fill="black" fill-opacity="0.2"/>
<path d="M61.4355 0H19.4355C10.599 0 3.43555 7.16344 3.43555 16V179C3.43555 187.837 10.599 195 19.4355 195H61.4355C70.2721 195 77.4355 187.837 77.4355 179V16C77.4355 7.16344 70.2721 0 61.4355 0Z" fill="#2B4BFF"/>
<path d="M3.43555 164.001H77.4355V246.001C77.4355 247.857 76.698 249.638 75.3853 250.951C74.0725 252.263 72.2921 253.001 70.4355 253.001H10.4355C8.57903 253.001 6.79855 252.263 5.4858 250.951C4.17304 249.638 3.43555 247.857 3.43555 246.001V164.001Z" fill="#DEE3FF"/>
<path d="M3.93555 164.501H76.9355V246.001C76.9355 247.725 76.2507 249.378 75.0317 250.597C73.8128 251.816 72.1595 252.501 70.4355 252.501H10.4355C9.58195 252.501 8.73672 252.333 7.9481 252.006C7.15949 251.68 6.44293 251.201 5.83935 250.597C4.62037 249.378 3.93555 247.725 3.93555 246.001V164.501Z" stroke="#C2C7E6"/>
<path d="M59.4355 176.001H14.4355C12.2264 176.001 10.4355 177.792 10.4355 180.001C10.4355 182.21 12.2264 184.001 14.4355 184.001H59.4355C61.6447 184.001 63.4355 182.21 63.4355 180.001C63.4355 177.792 61.6447 176.001 59.4355 176.001Z" fill="black" fill-opacity="0.2"/>
<path d="M39.4355 192.001H14.4355C12.2264 192.001 10.4355 193.792 10.4355 196.001C10.4355 198.21 12.2264 200.001 14.4355 200.001H39.4355C41.6447 200.001 43.4355 198.21 43.4355 196.001C43.4355 193.792 41.6447 192.001 39.4355 192.001Z" fill="black" fill-opacity="0.2"/>
<path d="M28.4355 208.001H14.4355C12.2264 208.001 10.4355 209.792 10.4355 212.001C10.4355 214.21 12.2264 216.001 14.4355 216.001H28.4355C30.6447 216.001 32.4355 214.21 32.4355 212.001C32.4355 209.792 30.6447 208.001 28.4355 208.001Z" fill="black" fill-opacity="0.2"/>
<path d="M18.4355 228.001C18.4355 225.792 16.6447 224.001 14.4355 224.001C12.2264 224.001 10.4355 225.792 10.4355 228.001C10.4355 230.21 12.2264 232.001 14.4355 232.001C16.6447 232.001 18.4355 230.21 18.4355 228.001Z" fill="black" fill-opacity="0.2"/>
</g>
<defs>
<clipPath id="clip0_17_3200">
<rect width="265.679" height="311.856" fill="white"/>
</clipPath>
</defs>
</svg>
