<svg width="100%" height="100%" viewBox="0 0 24 24" fill="none" xmlns="http://www.w3.org/2000/svg">
 <path d="M5 17.33V6.67C5 5.79 5 5.35 5.19 5.1C5.35 4.89 5.6 4.76 5.87 4.74C6.18 4.73 6.55 4.96 7.29 5.43L15.83 10.76C16.41 11.13 16.71 11.31 16.81 11.55C16.91 11.77 16.91 12.01 16.81 12.23C16.71 12.47 16.41 12.65 15.83 13.02L7.29 18.35C6.55 18.82 6.18 19.05 5.87 19.04C5.6 19.03 5.35 18.89 5.19 18.68C5 18.43 5 17.99 5 17.33Z" stroke="currentColor" stroke-width="2" stroke-linecap="round" stroke-linejoin="round"/>
</svg>
