<svg xmlns="http://www.w3.org/2000/svg" viewBox="0 0 512 514">
    <path fill-rule="evenodd" clip-rule="evenodd"
        d="M503.16 323.56c11.39-42.09 12.16-87.65.04-132.8C466.57 54.2299 326.04-26.8001 189.33 9.77991 83.8101 38.0199 11.3899 128.07.689941 230.47H43.99c10.3-83.14 69.75-155.7402 155.76-178.7602 106.3-28.45 215.38 28.9601 253.42 129.6702l-42.14 11.27c-19.39-46.85-58.46-81.2-104.73-95.8302l-7.74 43.8402c36.53 13.47 66.16 43.84 77 84.25 15.8 58.89-13.62 119.23-67 144.26l11.53 42.99c70.16-28.95 112.31-101.86 102.34-177.02l41.98-11.23c4.5 28.71 2.94 57.25-3.86 84.16l42.61 15.49Z"
        fill="currentColor" />
    <path
        d="M321.99 504.22C185.27 540.8 44.7501 459.77 8.11011 323.24 3.84011 307.31 1.17 291.33 0 275.46h43.27c1.09 11.91 3.1999 23.89 6.4099 35.83 3.36 12.51 7.7701 24.46 13.1101 35.78l38.59-23.15c-3.2501-7.5-5.99-15.32-8.17-23.45-24.04-89.6 29.2-181.7 118.92-205.7099 17-4.55 34.1-6.32 50.8-5.61L255.19 133c-10.46.05-21.08 1.42-31.66 4.25-66.22 17.73-105.52 85.7-87.78 151.84 1.1 4.07 2.38 8.04 3.84 11.9l49.35-29.61-14.87-39.43 46.6-47.87 58.9-12.69 17.05 20.99-27.15 27.5-23.68 7.45-16.92 17.39 8.29 23.07s16.79 17.84 16.82 17.85l23.72-6.31 16.88-18.54 36.86-11.67 10.98 24.7-38.03 46.63-63.73 20.18-28.58-31.82-49.82 29.89c25.54 29.08 63.94 45.23 103.75 41.86l11.53 42.99c-59.41 7.86-117.44-16.73-153.49-61.91l-38.4101 23.04C136.25 451.17 223.84 484.11 309.61 461.16c61.74-16.52 109.79-58.6 135.81-111.78l42.64 15.5c-30.89 66.28-89.84 118.94-166.07 139.34Z"
        fill="currentColor" />
</svg>