<svg width="256" height="256" viewBox="0 0 256 256" fill="none" xmlns="http://www.w3.org/2000/svg">
<rect width="256" height="256" fill="#ECEDEE"/>
<path d="M19.7926 106.364H31.1705L43.1875 135.682H43.6989L55.7159 106.364H67.0938V150H58.1449V121.598H57.7827L46.4901 149.787H40.3963L29.1037 121.491H28.7415V150H19.7926V106.364ZM73.3245 150V117.273H82.4012V150H73.3245ZM77.8842 113.054C76.5347 113.054 75.3771 112.607 74.4112 111.712C73.4594 110.803 72.9836 109.716 72.9836 108.452C72.9836 107.202 73.4594 106.129 74.4112 105.234C75.3771 104.325 76.5347 103.871 77.8842 103.871C79.2336 103.871 80.3842 104.325 81.3359 105.234C82.3018 106.129 82.7847 107.202 82.7847 108.452C82.7847 109.716 82.3018 110.803 81.3359 111.712C80.3842 112.607 79.2336 113.054 77.8842 113.054ZM115.702 126.605L107.393 127.116C107.251 126.406 106.945 125.767 106.476 125.199C106.008 124.616 105.39 124.155 104.623 123.814C103.87 123.459 102.968 123.281 101.917 123.281C100.511 123.281 99.3244 123.58 98.3585 124.176C97.3926 124.759 96.9097 125.54 96.9097 126.52C96.9097 127.301 97.2222 127.962 97.8472 128.501C98.4722 129.041 99.5446 129.474 101.064 129.801L106.988 130.994C110.17 131.648 112.542 132.699 114.104 134.148C115.667 135.597 116.448 137.5 116.448 139.858C116.448 142.003 115.816 143.885 114.552 145.504C113.302 147.124 111.583 148.388 109.395 149.297C107.222 150.192 104.715 150.639 101.874 150.639C97.5418 150.639 94.0901 149.737 91.519 147.933C88.9622 146.115 87.4636 143.643 87.0233 140.518L95.9509 140.05C96.2207 141.371 96.8741 142.379 97.9111 143.075C98.948 143.757 100.276 144.098 101.895 144.098C103.486 144.098 104.765 143.793 105.731 143.182C106.711 142.557 107.208 141.754 107.222 140.774C107.208 139.95 106.86 139.276 106.178 138.75C105.496 138.21 104.445 137.798 103.025 137.514L97.3571 136.385C94.1611 135.746 91.7818 134.638 90.2193 133.061C88.671 131.484 87.8969 129.474 87.8969 127.031C87.8969 124.929 88.4651 123.118 89.6014 121.598C90.752 120.078 92.3642 118.906 94.4381 118.082C96.5261 117.259 98.9693 116.847 101.768 116.847C105.901 116.847 109.154 117.72 111.526 119.467C113.912 121.214 115.305 123.594 115.702 126.605ZM148.194 126.605L139.884 127.116C139.742 126.406 139.437 125.767 138.968 125.199C138.499 124.616 137.881 124.155 137.114 123.814C136.361 123.459 135.459 123.281 134.408 123.281C133.002 123.281 131.816 123.58 130.85 124.176C129.884 124.759 129.401 125.54 129.401 126.52C129.401 127.301 129.714 127.962 130.339 128.501C130.964 129.041 132.036 129.474 133.556 129.801L139.479 130.994C142.661 131.648 145.033 132.699 146.596 134.148C148.158 135.597 148.939 137.5 148.939 139.858C148.939 142.003 148.307 143.885 147.043 145.504C145.793 147.124 144.074 148.388 141.887 149.297C139.714 150.192 137.206 150.639 134.366 150.639C130.033 150.639 126.581 149.737 124.01 147.933C121.454 146.115 119.955 143.643 119.515 140.518L128.442 140.05C128.712 141.371 129.366 142.379 130.402 143.075C131.439 143.757 132.768 144.098 134.387 144.098C135.978 144.098 137.256 143.793 138.222 143.182C139.202 142.557 139.699 141.754 139.714 140.774C139.699 139.95 139.351 139.276 138.67 138.75C137.988 138.21 136.937 137.798 135.516 137.514L129.849 136.385C126.652 135.746 124.273 134.638 122.711 133.061C121.162 131.484 120.388 129.474 120.388 127.031C120.388 124.929 120.956 123.118 122.093 121.598C123.243 120.078 124.856 118.906 126.929 118.082C129.018 117.259 131.461 116.847 134.259 116.847C138.393 116.847 141.645 117.72 144.018 119.467C146.404 121.214 147.796 123.594 148.194 126.605ZM153.455 150V117.273H162.532V150H153.455ZM158.015 113.054C156.665 113.054 155.508 112.607 154.542 111.712C153.59 110.803 153.114 109.716 153.114 108.452C153.114 107.202 153.59 106.129 154.542 105.234C155.508 104.325 156.665 103.871 158.015 103.871C159.364 103.871 160.515 104.325 161.466 105.234C162.432 106.129 162.915 107.202 162.915 108.452C162.915 109.716 162.432 110.803 161.466 111.712C160.515 112.607 159.364 113.054 158.015 113.054ZM177.679 131.08V150H168.603V117.273H177.253V123.047H177.637C178.361 121.143 179.576 119.638 181.28 118.53C182.985 117.408 185.051 116.847 187.48 116.847C189.753 116.847 191.735 117.344 193.425 118.338C195.115 119.332 196.429 120.753 197.367 122.599C198.304 124.432 198.773 126.619 198.773 129.162V150H189.696V130.781C189.711 128.778 189.199 127.216 188.162 126.094C187.125 124.957 185.698 124.389 183.88 124.389C182.658 124.389 181.578 124.652 180.641 125.178C179.718 125.703 178.993 126.47 178.468 127.479C177.956 128.473 177.694 129.673 177.679 131.08ZM219.471 162.955C216.531 162.955 214.01 162.55 211.907 161.74C209.819 160.945 208.157 159.858 206.921 158.48C205.686 157.102 204.883 155.554 204.514 153.835L212.909 152.706C213.164 153.359 213.569 153.97 214.123 154.538C214.677 155.107 215.409 155.561 216.318 155.902C217.241 156.257 218.363 156.435 219.684 156.435C221.659 156.435 223.285 155.952 224.563 154.986C225.856 154.034 226.502 152.436 226.502 150.192V144.205H226.119C225.721 145.114 225.125 145.973 224.329 146.783C223.534 147.592 222.511 148.253 221.261 148.764C220.011 149.276 218.519 149.531 216.787 149.531C214.329 149.531 212.092 148.963 210.075 147.827C208.072 146.676 206.474 144.922 205.281 142.564C204.102 140.192 203.512 137.195 203.512 133.572C203.512 129.865 204.116 126.768 205.323 124.283C206.531 121.797 208.136 119.936 210.139 118.7C212.156 117.464 214.365 116.847 216.765 116.847C218.598 116.847 220.132 117.159 221.367 117.784C222.603 118.395 223.598 119.162 224.35 120.085C225.117 120.994 225.707 121.889 226.119 122.77H226.46V117.273H235.473V150.32C235.473 153.104 234.791 155.433 233.427 157.308C232.063 159.183 230.174 160.589 227.76 161.527C225.359 162.479 222.596 162.955 219.471 162.955ZM219.663 142.713C221.126 142.713 222.362 142.351 223.37 141.626C224.393 140.888 225.174 139.837 225.714 138.473C226.268 137.095 226.545 135.447 226.545 133.53C226.545 131.612 226.275 129.95 225.735 128.544C225.196 127.124 224.414 126.023 223.392 125.241C222.369 124.46 221.126 124.07 219.663 124.07C218.171 124.07 216.914 124.474 215.892 125.284C214.869 126.08 214.095 127.187 213.569 128.608C213.044 130.028 212.781 131.669 212.781 133.53C212.781 135.419 213.044 137.053 213.569 138.43C214.109 139.794 214.883 140.852 215.892 141.605C216.914 142.344 218.171 142.713 219.663 142.713Z" fill="#1E1E1E"/>
</svg>
