<svg width="256" height="256" viewBox="0 0 256 256" fill="none" xmlns="http://www.w3.org/2000/svg">
<g clip-path="url(#clip0_1_929)">
<path fill-rule="evenodd" clip-rule="evenodd" d="M198.963 132.03C194.735 156.226 182.08 178.145 163.24 193.904L117.79 231.92C115.64 233.718 116.912 237.221 119.715 237.221H163.665C181.886 237.221 198.722 227.501 207.833 211.721L243.388 150.138C252.498 134.358 252.498 114.917 243.388 99.1378L217.826 54.8638C216.425 52.4361 212.755 53.0861 212.273 55.8474L198.963 132.03ZM141.106 12.0544C143.909 12.0544 145.181 15.5571 143.031 17.3556L84.7602 66.0956C65.9197 81.8546 53.2649 103.773 49.0375 127.969L39.0752 184.989C38.5928 187.75 34.9235 188.4 33.5219 185.973L12.8327 150.138C3.72243 134.358 3.72243 114.917 12.8327 99.1378L48.3878 37.5544C57.4981 21.775 74.3346 12.0544 92.5551 12.0544H141.106Z" fill="#0048C5"/>
<path fill-rule="evenodd" clip-rule="evenodd" d="M187.195 27.4682C187.797 23.825 183.563 21.3803 180.71 23.724L88.0828 99.7989C81.7655 104.987 82.4025 114.773 89.1711 119.142C101.262 111.22 115.497 109.958 131.362 119.118C147.058 128.179 152.443 140.754 150.95 154.749C157.996 157.877 166.329 153.557 167.625 145.723L187.195 27.4682Z" fill="#0A5BE8"/>
<path fill-rule="evenodd" clip-rule="evenodd" d="M112.759 126.51C104.564 137.059 99.292 156.87 100.491 169.357C100.557 170.045 101.291 170.42 101.889 170.074C111.732 164.389 126.758 149.977 132.285 137.756C154.512 165.269 98.975 218.202 66.2935 233.188C64.931 233.812 63.3862 233.023 63.0927 231.554C55.1404 191.715 77.0758 120.558 112.759 126.51Z" fill="#0A5BE8"/>
</g>
<defs>
<clipPath id="clip0_1_929">
<rect width="256" height="256" fill="white"/>
</clipPath>
</defs>
</svg>
