<svg width="227" height="23" viewBox="0 0 227 23" fill="none" xmlns="http://www.w3.org/2000/svg">
<path d="M27.3184 21.1792V1.66849H30.3582L31.6571 5.56511V21.1792H27.3184ZM40.7767 21.1792L29.2805 6.44945L30.3582 1.66849L41.8544 16.3983L40.7767 21.1792ZM40.7767 21.1792L39.616 17.2826V1.66849H43.9547V21.1792H40.7767Z" fill="#5187F1"/>
<path d="M49.379 21.1792V1.66849H53.7177V21.1792H49.379ZM52.6952 21.1792V17.4208H63.39V21.1792H52.6952ZM52.6952 13.0267V9.40646H62.4228V13.0267H52.6952ZM52.6952 5.3993V1.66849H63.2518V5.3993H52.6952Z" fill="#5187F1"/>
<path d="M68.0392 21.1792V1.66849H72.3779V21.1792H68.0392ZM71.383 21.1792V17.3655H81.0277V21.1792H71.383Z" fill="#1878F1"/>
<path d="M83.1836 21.1792L90.9215 1.66849H94.8457L102.501 21.1792H97.9132L92.0545 4.98476H93.6297L87.6882 21.1792H83.1836ZM87.5776 17.6419V14.1045H98.2172V17.6419H87.5776Z" fill="#1878F1"/>
<path d="M113.856 21.4832C112.253 21.4832 110.834 21.1424 109.6 20.4607C108.384 19.779 107.426 18.8394 106.726 17.6419C106.044 16.4259 105.703 15.0441 105.703 13.4965V1.66849H110.07V13.7452C110.07 14.519 110.235 15.1915 110.567 15.7626C110.899 16.3338 111.35 16.776 111.921 17.0892C112.511 17.3839 113.156 17.5313 113.856 17.5313C114.593 17.5313 115.237 17.3839 115.79 17.0892C116.343 16.776 116.776 16.343 117.089 15.7903C117.421 15.2191 117.586 14.5467 117.586 13.7729V1.66849H121.953V13.5242C121.953 15.0718 121.612 16.4443 120.93 17.6419C120.249 18.8394 119.3 19.779 118.084 20.4607C116.868 21.1424 115.458 21.4832 113.856 21.4832Z" fill="#1878F1"/>
<path d="M127.069 21.1792V1.66849H130.109L131.408 5.56511V21.1792H127.069ZM140.528 21.1792L129.031 6.44945L130.109 1.66849L141.605 16.3983L140.528 21.1792ZM140.528 21.1792L139.367 17.2826V1.66849H143.706V21.1792H140.528Z" fill="#1878F1"/>
<path d="M158.388 21.4832C156.932 21.4832 155.578 21.2345 154.325 20.7371C153.091 20.2212 152.004 19.5027 151.064 18.5815C150.143 17.6603 149.425 16.5917 148.909 15.3757C148.393 14.1414 148.135 12.8148 148.135 11.3962C148.135 9.97759 148.393 8.6603 148.909 7.44433C149.425 6.20994 150.143 5.14137 151.064 4.2386C151.986 3.33584 153.063 2.63574 154.298 2.1383C155.55 1.62243 156.905 1.3645 158.36 1.3645C159.908 1.3645 161.28 1.61322 162.478 2.11066C163.694 2.6081 164.753 3.28978 165.656 4.1557L162.754 7.08507C162.238 6.53236 161.612 6.0994 160.875 5.7862C160.156 5.47299 159.318 5.31639 158.36 5.31639C157.513 5.31639 156.73 5.46378 156.011 5.75856C155.311 6.03492 154.703 6.44024 154.187 6.97453C153.69 7.50882 153.294 8.15365 152.999 8.90902C152.722 9.66439 152.584 10.4935 152.584 11.3962C152.584 12.3174 152.722 13.1557 152.999 13.9111C153.294 14.6664 153.69 15.3113 154.187 15.8456C154.703 16.3798 155.311 16.7944 156.011 17.0892C156.73 17.3839 157.513 17.5313 158.36 17.5313C159.355 17.5313 160.221 17.3747 160.958 17.0615C161.695 16.7483 162.33 16.3154 162.865 15.7626L165.794 18.692C164.854 19.5579 163.777 20.2396 162.561 20.7371C161.363 21.2345 159.972 21.4832 158.388 21.4832Z" fill="#1878F1"/>
<path d="M169.841 21.1792V1.66849H174.18V21.1792H169.841ZM181.918 21.1792V1.66849H186.284V21.1792H181.918ZM172.439 13.0267V9.26828H183.355V13.0267H172.439Z" fill="#1878F1"/>
<path d="M191.686 21.1792V1.66849H196.025V21.1792H191.686ZM195.002 21.1792V17.4208H205.697V21.1792H195.002ZM195.002 13.0267V9.40646H204.73V13.0267H195.002ZM195.002 5.3993V1.66849H205.559V5.3993H195.002Z" fill="#1878F1"/>
<path d="M213.662 13.1373V9.93154H217.78C218.646 9.93154 219.309 9.71045 219.77 9.26828C220.249 8.82611 220.488 8.22734 220.488 7.47197C220.488 6.77187 220.258 6.19152 219.797 5.73093C219.337 5.27033 218.673 5.04003 217.808 5.04003H213.662V1.66849H218.305C219.595 1.66849 220.728 1.91721 221.704 2.41465C222.681 2.89367 223.445 3.56614 223.998 4.43205C224.551 5.29797 224.827 6.29285 224.827 7.4167C224.827 8.55897 224.551 9.56306 223.998 10.429C223.445 11.2765 222.671 11.9397 221.676 12.4187C220.682 12.8978 219.512 13.1373 218.167 13.1373H213.662ZM210.346 21.1792V1.66849H214.685V21.1792H210.346ZM220.958 21.1792L214.878 12.778L218.858 11.7002L226.098 21.1792H220.958Z" fill="#1878F1"/>
<path fill-rule="evenodd" clip-rule="evenodd" d="M17.3067 11.8423C16.9275 14.0124 15.7925 15.9783 14.1028 17.3917L10.0261 20.8016C9.83326 20.9629 9.94733 21.2771 10.1987 21.2771H14.1409C15.7751 21.2771 17.2852 20.4052 18.1023 18.99L21.2912 13.4665C22.1083 12.0513 22.1083 10.3076 21.2912 8.89238L18.9985 4.9213C18.8728 4.70357 18.5437 4.76186 18.5004 5.00952L17.3067 11.8423ZM12.1173 1.08179C12.3687 1.08179 12.4828 1.39594 12.29 1.55724L7.06395 5.92856C5.37418 7.34197 4.2392 9.30785 3.86005 11.478L2.96651 16.5923C2.92324 16.8399 2.59414 16.8982 2.46844 16.6805L0.612869 13.4665C-0.204207 12.0513 -0.204209 10.3076 0.612867 8.89238L3.8018 3.3689C4.61889 1.95363 6.12896 1.08179 7.76316 1.08179H12.1173Z" fill="#1878F1"/>
<path fill-rule="evenodd" clip-rule="evenodd" d="M16.2512 2.46364C16.3052 2.13689 15.9255 1.91762 15.6695 2.12783L7.36193 8.95102C6.79496 9.41668 6.85255 10.2952 7.46072 10.6867C8.54488 9.97687 9.82114 9.86407 11.2436 10.6853C12.6507 11.4977 13.1339 12.6249 13.0006 13.8795C13.6325 14.16 14.3797 13.7725 14.496 13.0699L16.2512 2.46364Z" fill="#5187F1"/>
<path fill-rule="evenodd" clip-rule="evenodd" d="M9.57397 11.3474C8.83963 12.2939 8.36735 14.0696 8.47482 15.1889C8.48074 15.2506 8.54657 15.2842 8.60023 15.2532C9.48267 14.7436 10.8298 13.4516 11.3259 12.3558C13.3204 14.8233 8.33892 19.5715 5.40756 20.9156C5.28536 20.9716 5.1468 20.9009 5.12048 20.769C4.40733 17.1963 6.37419 10.8152 9.57397 11.3474Z" fill="#5187F1"/>
</svg>
