<svg width="153" height="32" viewBox="0 0 153 32" fill="none" xmlns="http://www.w3.org/2000/svg">
<path d="M22.4648 25.3793V7.44458H25.2079L26.3799 11.0264V25.3793H22.4648ZM34.6091 25.3793L24.2353 11.8393L25.2079 7.44458L35.5818 20.9846L34.6091 25.3793ZM34.6091 25.3793L33.5616 21.7975V7.44458H37.4768V25.3793H34.6091ZM42.3714 25.3793V7.44458H46.2866V25.3793H42.3714ZM45.364 25.3793V21.9245H55.0144V25.3793H45.364ZM45.364 17.8854V14.5575H54.1416V17.8854H45.364ZM45.364 10.874V7.44458H54.8898V10.874H45.364Z" fill="#D5DBFF" fill-opacity="0.85"/>
<path d="M67.2479 25.6588C65.9345 25.6588 64.7124 25.4302 63.5821 24.9729C62.4683 24.4987 61.4875 23.8382 60.6396 22.9915C59.8083 22.1447 59.16 21.1624 58.6945 20.0447C58.229 18.91 57.9961 17.6906 57.9961 16.3866C57.9961 15.0825 58.229 13.8716 58.6945 12.7539C59.16 11.6192 59.8083 10.6369 60.6396 9.80712C61.4707 8.97727 62.4434 8.33371 63.5572 7.87644C64.6875 7.40227 65.9096 7.16516 67.2229 7.16516C68.6192 7.16516 69.8578 7.3938 70.9385 7.85104C72.0355 8.30831 72.9914 8.93493 73.8063 9.7309L71.1877 12.4236C70.7222 11.9156 70.157 11.5176 69.4922 11.2297C68.8437 10.9418 68.0873 10.7979 67.2229 10.7979C66.4582 10.7979 65.7514 10.9333 65.1031 11.2043C64.4714 11.4583 63.9227 11.8309 63.4572 12.322C63.0085 12.8132 62.6511 13.4059 62.3852 14.1003C62.1358 14.7946 62.0109 15.5567 62.0109 16.3866C62.0109 17.2334 62.1358 18.0039 62.3852 18.6983C62.6511 19.3926 63.0085 19.9854 63.4572 20.4765C63.9227 20.9676 64.4714 21.3487 65.1031 21.6197C65.7514 21.8907 66.4582 22.0261 67.2229 22.0261C68.1206 22.0261 68.9019 21.8822 69.567 21.5943C70.2318 21.3064 70.8053 20.9084 71.2876 20.4003L73.9308 23.0931C73.083 23.889 72.1105 24.5156 71.0133 24.9729C69.9325 25.4302 68.6774 25.6588 67.2479 25.6588ZM77.5831 25.3794V7.44461H81.498V25.3794H77.5831ZM80.6003 25.3794V21.8737H89.3031V25.3794H80.6003ZM93.0575 25.3794V7.44461H96.9726V25.3794H93.0575ZM101.859 25.3794V7.44461H105.774V25.3794H101.859ZM104.852 25.3794V21.9245H114.502V25.3794H104.852ZM104.852 17.8854V14.5575H113.63V17.8854H104.852ZM104.852 10.874V7.44461H114.378V10.874H104.852ZM118.698 25.3794V7.44461H121.441L122.613 11.0265V25.3794H118.698ZM130.842 25.3794L120.468 11.8394L121.441 7.44461L131.814 20.9846L130.842 25.3794ZM130.842 25.3794L129.795 21.7975V7.44461H133.71V25.3794H130.842ZM142.918 25.3794V7.69862H146.833V25.3794H142.918ZM137.407 10.9249V7.44461H152.345V10.9249H137.407Z" fill="#D5DBFF"/>
<path d="M7.90642 7.17236H6.63633C5.1788 7.17236 3.83197 7.95838 3.1032 9.23429L0.259 14.2139C0.161603 14.3844 0.0772228 14.5602 0.00585938 14.7399L4.04665 13.9875C5.67828 13.6836 6.95495 12.3931 7.25554 10.7439L7.90642 7.17236Z" fill="#D5DBFF"/>
<path d="M0 17.7972C0.072567 17.982 0.158862 18.1627 0.258886 18.3378L3.10308 23.3174C3.83185 24.5933 5.17868 25.3793 6.63622 25.3793H7.90877L7.25542 21.7944C6.95484 20.1451 5.67817 18.8546 4.04654 18.5508L0 17.7972Z" fill="#D5DBFF"/>
<path d="M11.1172 25.3793H12.3254C13.7829 25.3793 15.1297 24.5933 15.8585 23.3174L18.7027 18.3378C18.8004 18.1668 18.885 17.9904 18.9565 17.8102L14.9794 18.5508C13.3478 18.8546 12.0711 20.1451 11.7705 21.7944L11.1172 25.3793Z" fill="#D5DBFF"/>
<path d="M18.9502 14.727C18.8799 14.5518 18.7973 14.3803 18.7022 14.2139L15.858 9.23429C15.1292 7.95835 13.7824 7.17236 12.3249 7.17236H11.1191L11.7701 10.7439C12.0706 12.3931 13.3473 13.6836 14.9789 13.9875L18.9502 14.727Z" fill="#D5DBFF"/>
<path d="M9.47318 7.52967C9.47851 7.48181 9.54735 7.48181 9.55268 7.52967L9.86729 10.3575C10.1879 13.2396 12.4348 15.5162 15.2853 15.8472L18.5731 16.229C18.6203 16.2345 18.6203 16.3038 18.5731 16.3093L15.2853 16.6911C12.4348 17.0221 10.1879 19.2987 9.86729 22.1808L9.55268 25.0086C9.54735 25.0565 9.47851 25.0565 9.47318 25.0086L9.15908 22.1852C8.83818 19.3011 6.58846 17.0236 3.73565 16.6949L0.388983 16.3093C0.341693 16.3039 0.341693 16.2344 0.388983 16.229L3.73565 15.8434C6.58846 15.5147 8.83818 13.2372 9.15908 10.3531L9.47318 7.52967Z" fill="#D5DBFF" fill-opacity="0.85"/>
</svg>
