<svg width="565" height="116" viewBox="0 0 565 116" fill="none" xmlns="http://www.w3.org/2000/svg">
<path d="M82.9609 92V26.9865H93.0904L97.4185 39.9707V92H82.9609ZM127.807 92L89.499 42.9175L93.0904 26.9865L131.399 76.0689L127.807 92ZM127.807 92L123.939 79.0157V26.9865H138.397V92H127.807ZM156.472 92V26.9865H170.93V92H156.472ZM167.523 92V79.4761H203.16V92H167.523ZM167.523 64.8343V52.7709H199.937V64.8343H167.523ZM167.523 39.4182V26.9865H202.7V39.4182H167.523Z" fill="#0A5BE8"/>
<path d="M248.333 93.013C243.483 93.013 238.97 92.1842 234.796 90.5266C230.683 88.8076 227.061 86.4134 223.93 83.3438C220.86 80.2742 218.466 76.7135 216.747 72.6617C215.028 68.5485 214.168 64.1283 214.168 59.4011C214.168 54.674 215.028 50.2845 216.747 46.2327C218.466 42.1194 220.86 38.5587 223.93 35.5506C226.999 32.5424 230.591 30.2095 234.704 28.5519C238.878 26.833 243.391 25.9735 248.241 25.9735C253.397 25.9735 257.971 26.8023 261.962 28.4598C266.013 30.1174 269.543 32.3889 272.552 35.2743L262.882 45.0355C261.163 43.1938 259.076 41.7511 256.621 40.7074C254.226 39.6638 251.433 39.142 248.241 39.142C245.417 39.142 242.807 39.6331 240.413 40.6154C238.08 41.5362 236.054 42.8868 234.335 44.6672C232.678 46.4475 231.358 48.5962 230.376 51.1133C229.455 53.6303 228.994 56.393 228.994 59.4011C228.994 62.4707 229.455 65.264 230.376 67.7811C231.358 70.2981 232.678 72.4468 234.335 74.2272C236.054 76.0075 238.08 77.3888 240.413 78.3711C242.807 79.3534 245.417 79.8445 248.241 79.8445C251.556 79.8445 254.441 79.3227 256.897 78.279C259.352 77.2354 261.47 75.7927 263.251 73.9509L273.012 83.7122C269.881 86.5976 266.29 88.869 262.238 90.5266C258.247 92.1842 253.612 93.013 248.333 93.013ZM286.499 92V26.9865H300.956V92H286.499ZM297.641 92V79.292H329.779V92H297.641ZM343.643 92V26.9865H358.101V92H343.643ZM376.147 92V26.9865H390.604V92H376.147ZM387.197 92V79.4761H422.835V92H387.197ZM387.197 64.8343V52.7709H419.612V64.8343H387.197ZM387.197 39.4182V26.9865H422.375V39.4182H387.197ZM438.327 92V26.9865H448.457L452.785 39.9707V92H438.327ZM483.174 92L444.865 42.9175L448.457 26.9865L486.765 76.0689L483.174 92ZM483.174 92L479.306 79.0157V26.9865H493.764V92H483.174ZM527.77 92V27.9073H542.227V92H527.77ZM507.418 39.6024V26.9865H562.579V39.6024H507.418Z" fill="#0048C5"/>
<path d="M29.1968 26H24.5066C19.1242 26 14.1506 28.8493 11.4594 33.4745L0.956285 51.5255C0.596616 52.1437 0.285016 52.781 0.0214844 53.4323L14.9434 50.7047C20.9687 49.6033 25.6832 44.9253 26.7932 38.9467L29.1968 26Z" fill="#0048C5"/>
<path d="M0 64.5149C0.267976 65.1846 0.586648 65.8397 0.956016 66.4745L11.4591 84.5255C14.1503 89.1507 19.1239 92 24.5063 92H29.2056L26.7929 79.0045C25.6829 73.0259 20.9684 68.3479 14.9431 67.2465L0 64.5149Z" fill="#0048C5"/>
<path d="M41.0508 92H45.5124C50.8948 92 55.8683 89.1507 58.5595 84.5255L69.0627 66.4745C69.4234 65.8545 69.7358 65.2152 69.9998 64.5618L55.3133 67.2465C49.288 68.3479 44.5735 73.0259 43.4635 79.0045L41.0508 92Z" fill="#0048C5"/>
<path d="M69.9782 53.3854C69.7187 52.7504 69.4135 52.1288 69.0625 51.5255L58.5593 33.4745C55.8681 28.8492 50.8946 26 45.5122 26H41.0596L43.4633 38.9467C44.5733 44.9253 49.2878 49.6033 55.3131 50.7047L69.9782 53.3854Z" fill="#0048C5"/>
<path d="M34.9819 27.295C35.0016 27.1215 35.2558 27.1215 35.2755 27.295L36.4373 37.5459C37.6214 47.9936 45.9187 56.2463 56.445 57.4461L68.5861 58.83C68.7606 58.8499 68.7606 59.1013 68.5861 59.1212L56.445 60.5051C45.9187 61.7049 37.6214 69.9576 36.4373 80.4053L35.2755 90.6561C35.2558 90.8297 35.0016 90.8297 34.9819 90.6561L33.822 80.4214C32.637 69.9663 24.3292 61.7104 13.7943 60.5189L1.43566 59.1212C1.26103 59.1014 1.26103 58.8497 1.43566 58.83L13.7943 57.4322C24.3292 56.2407 32.637 47.9848 33.822 37.5298L34.9819 27.295Z" fill="#0A5BE8"/>
</svg>
