<svg viewBox="0 0 32 32" fill="none" xmlns="http://www.w3.org/2000/svg">
<path d="M30.5066 12.693C30.5528 12.7766 30.6013 12.8641 30.6389 12.9553C31.4253 14.606 31.3934 16.9885 30.4923 18.6027L27.2136 24.2779C26.2441 22.7962 24.886 21.5249 23.2535 20.5646C23.2947 20.5007 23.3312 20.4366 23.3632 20.3725C26.2579 14.5146 23.2535 6.77718 16.0008 6.89151C8.62014 6.76804 5.70242 14.6472 8.72531 20.5829C7.10177 21.5433 5.75289 22.8098 4.78784 24.2871C4.76529 24.239 4.4442 23.6872 4.00388 22.9301C2.93343 21.0898 1.15761 18.0374 1.2485 18.0632C0.640255 16.5907 0.649417 14.5785 1.28511 13.1244C1.32329 13.0218 1.37063 12.9229 1.42043 12.8278C1.4481 12.7746 1.47669 12.7226 1.5046 12.6717L6.17803 4.56842C6.18495 4.55916 6.19077 4.54867 6.19656 4.53828C6.20238 4.52812 6.20795 4.51807 6.21465 4.50903C7.17947 2.90392 9.46148 1.60059 11.3226 1.60059H20.6697C22.7915 1.60059 24.7534 2.73468 25.8098 4.56842C25.8205 4.58193 27.4458 7.39536 28.7785 9.70205C29.7019 11.3007 30.4847 12.6558 30.4923 12.6671L30.5066 12.693Z" fill="currentColor"/>
<path d="M11.7015 23.5876C14.157 24.9777 17.8794 24.9731 20.2801 23.5784C22.3289 24.5935 23.8197 26.3222 24.2816 28.3526C23.2709 29.0979 22.027 29.6055 20.9021 29.6604C20.829 29.6696 20.7467 29.6696 20.6735 29.6696C20.6095 29.6679 19.3378 29.6687 17.7459 29.6697H17.6627C14.9349 29.6714 11.3248 29.6736 11.2076 29.665C10.0552 29.6376 8.76098 29.1253 7.72292 28.3526C8.17575 26.3268 9.66196 24.6027 11.7015 23.5876Z" fill="currentColor"/>
<path d="M20.6189 15.6397C20.7788 22.0189 11.2214 22.0143 11.3815 15.6397C11.2946 9.22384 20.7011 9.22384 20.6189 15.6397Z" fill="currentColor"/>
</svg>
