<svg width="1037" height="94" viewBox="0 0 1037 94" fill="none" xmlns="http://www.w3.org/2000/svg">
<path d="M47.84 93.536C41.0133 93.536 34.6987 92.3414 28.896 89.952C23.1787 87.5627 18.144 84.2347 13.792 79.968C9.44001 75.7014 6.06934 70.752 3.68001 65.12C1.29067 59.4027 0.0960083 53.2587 0.0960083 46.688C0.0960083 40.032 1.29067 33.888 3.68001 28.256C6.06934 22.624 9.39734 17.7173 13.664 13.536C17.9307 9.26934 22.9227 5.98401 28.64 3.68001C34.4427 1.29067 40.7573 0.0960083 47.584 0.0960083C54.3253 0.0960083 60.5547 1.29067 66.272 3.68001C72.0747 5.98401 77.1093 9.26934 81.376 13.536C85.728 17.7173 89.0987 22.6667 91.488 28.384C93.8773 34.016 95.072 40.16 95.072 46.816C95.072 53.3867 93.8773 59.5307 91.488 65.248C89.0987 70.88 85.7707 75.8293 81.504 80.096C77.2373 84.2773 72.2027 87.5627 66.4 89.952C60.6827 92.3414 54.496 93.536 47.84 93.536ZM47.584 75.232C52.96 75.232 57.6533 74.0373 61.664 71.648C65.76 69.2587 68.9173 65.9307 71.136 61.664C73.3547 57.312 74.464 52.32 74.464 46.688C74.464 42.4213 73.824 38.5813 72.544 35.168C71.264 31.6693 69.4293 28.6827 67.04 26.208C64.6507 23.648 61.792 21.728 58.464 20.448C55.2213 19.0827 51.5947 18.4 47.584 18.4C42.208 18.4 37.472 19.5947 33.376 21.984C29.3653 24.288 26.2507 27.5733 24.032 31.84C21.8133 36.0213 20.704 40.9707 20.704 46.688C20.704 50.9547 21.344 54.8373 22.624 58.336C23.904 61.8347 25.696 64.864 28 67.424C30.3893 69.8987 33.248 71.8187 36.576 73.184C39.904 74.5493 43.5733 75.232 47.584 75.232Z" fill="#5187F1"/>
<path d="M115.509 92V1.63201H129.589L135.605 19.68V92H115.509ZM177.845 92L124.597 23.776L129.589 1.63201L182.837 69.856L177.845 92ZM177.845 92L172.469 73.952V1.63201H192.565V92H177.845Z" fill="#5187F1"/>
<path d="M217.689 92V1.63201H237.785V92H217.689ZM233.049 92V74.592H282.585V92H233.049ZM233.049 54.24V37.472H278.105V54.24H233.049ZM233.049 18.912V1.63201H281.945V18.912H233.049Z" fill="#5187F1"/>
<path d="M304.119 92V1.63201H324.215V92H304.119ZM319.607 92V74.336H364.279V92H319.607Z" fill="#1878F1"/>
<path d="M374.265 92L410.105 1.63201H428.281L463.737 92H442.489L415.353 16.992H422.649L395.129 92H374.265ZM394.617 75.616V59.232H443.897V75.616H394.617Z" fill="#1878F1"/>
<path d="M516.331 93.408C508.907 93.408 502.336 91.8293 496.619 88.672C490.987 85.5147 486.55 81.1627 483.307 75.616C480.15 69.984 478.571 63.584 478.571 56.416V1.63201H498.795V57.568C498.795 61.152 499.563 64.2667 501.099 66.912C502.635 69.5574 504.726 71.6053 507.371 73.056C510.102 74.4213 513.088 75.104 516.331 75.104C519.744 75.104 522.731 74.4213 525.291 73.056C527.851 71.6053 529.856 69.6 531.307 67.04C532.843 64.3947 533.611 61.28 533.611 57.696V1.63201H553.835V56.544C553.835 63.712 552.256 70.0693 549.099 75.616C545.942 81.1627 541.547 85.5147 535.915 88.672C530.283 91.8293 523.755 93.408 516.331 93.408Z" fill="#1878F1"/>
<path d="M577.534 92V1.63201H591.614L597.63 19.68V92H577.534ZM639.87 92L586.622 23.776L591.614 1.63201L644.862 69.856L639.87 92ZM639.87 92L634.494 73.952V1.63201H654.59V92H639.87Z" fill="#1878F1"/>
<path d="M722.594 93.408C715.853 93.408 709.581 92.256 703.778 89.952C698.061 87.5627 693.026 84.2347 688.674 79.968C684.407 75.7014 681.079 70.752 678.69 65.12C676.301 59.4027 675.106 53.2587 675.106 46.688C675.106 40.1173 676.301 34.016 678.69 28.384C681.079 22.6667 684.407 17.7173 688.674 13.536C692.941 9.35468 697.933 6.11201 703.65 3.80801C709.453 1.41868 715.725 0.224014 722.466 0.224014C729.634 0.224014 735.991 1.37601 741.538 3.68001C747.17 5.98401 752.077 9.14134 756.258 13.152L742.818 26.72C740.429 24.16 737.527 22.1547 734.114 20.704C730.786 19.2533 726.903 18.528 722.466 18.528C718.541 18.528 714.914 19.2107 711.586 20.576C708.343 21.856 705.527 23.7333 703.138 26.208C700.834 28.6827 698.999 31.6693 697.634 35.168C696.354 38.6667 695.714 42.5067 695.714 46.688C695.714 50.9547 696.354 54.8373 697.634 58.336C698.999 61.8347 700.834 64.8213 703.138 67.296C705.527 69.7707 708.343 71.6907 711.586 73.056C714.914 74.4213 718.541 75.104 722.466 75.104C727.074 75.104 731.085 74.3787 734.498 72.928C737.911 71.4773 740.855 69.472 743.33 66.912L756.898 80.48C752.546 84.4907 747.554 87.648 741.922 89.952C736.375 92.256 729.933 93.408 722.594 93.408Z" fill="#1878F1"/>
<path d="M775.644 92V1.63201H795.74V92H775.644ZM831.58 92V1.63201H851.804V92H831.58ZM787.676 54.24V36.832H838.236V54.24H787.676Z" fill="#1878F1"/>
<path d="M876.824 92V1.63201H896.92V92H876.824ZM892.184 92V74.592H941.72V92H892.184ZM892.184 54.24V37.472H937.24V54.24H892.184ZM892.184 18.912V1.63201H941.08V18.912H892.184Z" fill="#1878F1"/>
<path d="M978.614 54.752V39.904H997.686C1001.7 39.904 1004.77 38.88 1006.9 36.832C1009.12 34.784 1010.23 32.0107 1010.23 28.512C1010.23 25.2693 1009.16 22.5813 1007.03 20.448C1004.9 18.3147 1001.82 17.248 997.814 17.248H978.614V1.63201H1000.12C1006.09 1.63201 1011.34 2.78401 1015.86 5.08801C1020.38 7.30668 1023.93 10.4213 1026.49 14.432C1029.05 18.4427 1030.33 23.0507 1030.33 28.256C1030.33 33.5467 1029.05 38.1973 1026.49 42.208C1023.93 46.1333 1020.34 49.2053 1015.73 51.424C1011.13 53.6427 1005.71 54.752 999.478 54.752H978.614ZM963.254 92V1.63201H983.35V92H963.254ZM1012.41 92L984.246 53.088L1002.68 48.096L1036.21 92H1012.41Z" fill="#1878F1"/>
</svg>
