<svg width="252" height="277" viewBox="0 0 252 277" fill="none" xmlns="http://www.w3.org/2000/svg">
	<g clip-path="url(#clip0_3343_6980)">
	<path d="M67.788 0H209.21C211.07 0 212.854 0.738831 214.169 2.05396C215.484 3.36909 216.223 5.15279 216.223 7.01266V97.0084C216.223 98.8683 215.484 100.652 214.169 101.967C212.854 103.282 211.07 104.021 209.21 104.021H67.788C65.9282 104.021 64.1445 103.282 62.8294 101.967C61.5142 100.652 60.7754 98.8683 60.7754 97.0084V7.01266C60.7754 5.15279 61.5142 3.36909 62.8294 2.05396C64.1445 0.738831 65.9282 0 67.788 0Z" fill="#BADDF6"/>
	<path d="M25.7119 24.5444H167.134C168.994 24.5444 170.777 25.2833 172.093 26.5984C173.408 27.9135 174.146 29.6972 174.146 31.5571V121.553C174.146 123.413 173.408 125.196 172.093 126.512C170.777 127.827 168.994 128.566 167.134 128.566H25.7119C23.852 128.566 22.0683 127.827 20.7532 126.512C19.4381 125.196 18.6992 123.413 18.6992 121.553V31.5571C18.6992 29.6972 19.4381 27.9135 20.7532 26.5984C22.0683 25.2833 23.852 24.5444 25.7119 24.5444Z" fill="url(#paint0_linear_3343_6980)"/>
	<path d="M23.3745 262.974C17.175 262.974 11.2294 260.512 6.84561 256.128C2.46185 251.745 -0.000976562 245.799 -0.000976562 239.599V139.084C-0.000976562 132.885 2.46185 126.938 6.84561 122.555C11.2294 118.171 17.175 115.709 23.3745 115.709H111.383C126.171 115.637 126.227 101.007 126.227 101.007V100.515C126.227 96.7948 127.704 93.2274 130.335 90.5971C132.965 87.9668 136.532 86.4893 140.252 86.4893H219.729C223.449 86.4893 227.016 87.9668 229.646 90.5971C232.277 93.2274 233.754 96.7948 233.754 100.515V239.599C233.754 245.799 231.291 251.745 226.908 256.128C222.524 260.512 216.578 262.974 210.379 262.974H23.3745Z" fill="url(#paint1_linear_3343_6980)"/>
	<path opacity="0.81" d="M33.8933 142.59H92.3322C94.502 142.59 96.583 143.452 98.1173 144.987C99.6516 146.521 100.514 148.602 100.514 150.772V156.616C100.514 158.785 99.6516 160.866 98.1173 162.401C96.583 163.935 94.502 164.797 92.3322 164.797H33.8933C31.7235 164.797 29.6425 163.935 28.1082 162.401C26.5739 160.866 25.7119 158.785 25.7119 156.616V150.772C25.7119 148.602 26.5739 146.521 28.1082 144.987C29.6425 143.452 31.7235 142.59 33.8933 142.59Z" fill="url(#paint2_linear_3343_6980)"/>
	<path d="M225.573 155.447H155.446C141.246 155.447 129.733 166.959 129.733 181.16V251.287C129.733 265.488 141.246 277 155.446 277H225.573C239.774 277 251.286 265.488 251.286 251.287V181.16C251.286 166.959 239.774 155.447 225.573 155.447Z" fill="url(#paint3_linear_3343_6980)"/>
	<path d="M225.573 156.032H155.446C141.568 156.032 130.317 167.282 130.317 181.16V251.287C130.317 265.165 141.568 276.416 155.446 276.416H225.573C239.451 276.416 250.701 265.165 250.701 251.287V181.16C250.701 167.282 239.451 156.032 225.573 156.032Z" stroke="white" stroke-opacity="0.5"/>
	<path opacity="0.75" d="M186.124 241.362L171.808 223.505C171.164 222.693 170.764 221.714 170.655 220.683C170.546 219.652 170.732 218.611 171.192 217.682C171.651 216.753 172.365 215.974 173.25 215.435C174.135 214.895 175.155 214.618 176.192 214.636H184.232V192.508C184.232 191.578 184.601 190.686 185.259 190.029C185.916 189.371 186.808 189.001 187.738 189.001H193.98C194.91 189.001 195.802 189.371 196.46 190.029C197.117 190.686 197.486 191.578 197.486 192.508V214.629H204.827C205.863 214.611 206.884 214.888 207.769 215.427C208.655 215.966 209.368 216.746 209.828 217.675C210.287 218.605 210.473 219.645 210.363 220.676C210.254 221.707 209.855 222.685 209.211 223.497L194.894 241.356C194.365 242.008 193.696 242.535 192.937 242.896C192.178 243.258 191.348 243.445 190.507 243.445C189.667 243.445 188.836 243.258 188.077 242.896C187.318 242.535 186.65 242.008 186.12 241.356L186.124 241.362Z" fill="#2B4BFF"/>
	<path opacity="0.83" d="M40.3217 39.7383H83.5664C85.5812 39.7383 87.5136 40.5387 88.9383 41.9634C90.363 43.3881 91.1634 45.3205 91.1634 47.3353C91.1634 49.3502 90.363 51.2825 88.9383 52.7073C87.5136 54.132 85.5812 54.9324 83.5664 54.9324H40.3217C38.3068 54.9324 36.3745 54.132 34.9497 52.7073C33.525 51.2825 32.7246 49.3502 32.7246 47.3353C32.7246 45.3205 33.525 43.3881 34.9497 41.9634C36.3745 40.5387 38.3068 39.7383 40.3217 39.7383Z" fill="url(#paint4_linear_3343_6980)"/>
	<path opacity="0.5" d="M35.6466 67.7891H85.9039C86.6789 67.7891 87.4221 68.0969 87.9701 68.6449C88.518 69.1928 88.8259 69.9361 88.8259 70.711C88.8259 71.486 88.518 72.2292 87.9701 72.7771C87.4221 73.3251 86.6789 73.6329 85.9039 73.6329H35.6466C34.8716 73.6329 34.1284 73.3251 33.5804 72.7771C33.0325 72.2292 32.7246 71.486 32.7246 70.711C32.7246 69.9361 33.0325 69.1928 33.5804 68.6449C34.1284 68.0969 34.8716 67.7891 35.6466 67.7891Z" fill="#11171C"/>
	<path opacity="0.5" d="M35.6466 79.4771H71.8786C72.6536 79.4771 73.3968 79.7849 73.9447 80.3329C74.4927 80.8808 74.8006 81.624 74.8006 82.399C74.8006 83.1739 74.4927 83.9171 73.9447 84.4651C73.3968 85.0131 72.6536 85.3209 71.8786 85.3209H35.6466C34.8716 85.3209 34.1284 85.0131 33.5804 84.4651C33.0325 83.9171 32.7246 83.1739 32.7246 82.399C32.7246 81.624 33.0325 80.8808 33.5804 80.3329C34.1284 79.7849 34.8716 79.4771 35.6466 79.4771Z" fill="#11171C"/>
	<path opacity="0.5" d="M99.9288 67.7891H111.617C112.391 67.7891 113.135 68.0969 113.683 68.6449C114.231 69.1928 114.538 69.9361 114.538 70.711C114.538 71.486 114.231 72.2292 113.683 72.7771C113.135 73.3251 112.391 73.6329 111.617 73.6329H99.9288C99.1538 73.6329 98.4106 73.3251 97.8627 72.7771C97.3147 72.2292 97.0068 71.486 97.0068 70.711C97.0068 69.9361 97.3147 69.1928 97.8627 68.6449C98.4106 68.0969 99.1538 67.7891 99.9288 67.7891Z" fill="#11171C"/>
	<path opacity="0.5" d="M35.6466 91.1646H43.828C44.6029 91.1646 45.3461 91.4724 45.8941 92.0204C46.4421 92.5683 46.7499 93.3115 46.7499 94.0865C46.7499 94.8614 46.4421 95.6046 45.8941 96.1526C45.3461 96.7006 44.6029 97.0084 43.828 97.0084H35.6466C34.8716 97.0084 34.1284 96.7006 33.5804 96.1526C33.0325 95.6046 32.7246 94.8614 32.7246 94.0865C32.7246 93.3115 33.0325 92.5683 33.5804 92.0204C34.1284 91.4724 34.8716 91.1646 35.6466 91.1646Z" fill="#11171C"/>
	</g>
	<defs>
	<linearGradient id="paint0_linear_3343_6980" x1="79.6345" y1="25.8967" x2="94.7541" y2="122.592" gradientUnits="userSpaceOnUse">
	<stop stop-color="#E4F3FE"/>
	<stop offset="1" stop-color="#D1E5F3"/>
	</linearGradient>
	<linearGradient id="paint1_linear_3343_6980" x1="6" y1="125.5" x2="103.202" y2="251.784" gradientUnits="userSpaceOnUse">
	<stop stop-color="#747DFF"/>
	<stop offset="1" stop-color="#2B4BFF"/>
	</linearGradient>
	<linearGradient id="paint2_linear_3343_6980" x1="51.8925" y1="142.08" x2="54.2642" y2="166.92" gradientUnits="userSpaceOnUse">
	<stop stop-color="white"/>
	<stop offset="1" stop-color="#E1F2FF"/>
	</linearGradient>
	<linearGradient id="paint3_linear_3343_6980" x1="172.277" y1="152.652" x2="212.268" y2="277" gradientUnits="userSpaceOnUse">
	<stop stop-color="#EAF6FF"/>
	<stop offset="1" stop-color="#C6E1F5"/>
	</linearGradient>
	<linearGradient id="paint4_linear_3343_6980" x1="34.1856" y1="40.8323" x2="40.9981" y2="67.1476" gradientUnits="userSpaceOnUse">
	<stop stop-color="#A191FF"/>
	<stop offset="1" stop-color="#516CFF"/>
	</linearGradient>
	<clipPath id="clip0_3343_6980">
	<rect width="251.286" height="277" fill="white"/>
	</clipPath>
	</defs>
	</svg>
