<svg width="156" height="32" viewBox="0 0 156 32" fill="none" xmlns="http://www.w3.org/2000/svg">
	<path d="M10.9398 25.6841C9.60192 25.6841 8.3644 25.447 7.22718 24.9728C6.10671 24.4986 5.12003 23.8381 4.26712 22.9913C3.41424 22.1446 2.75365 21.1623 2.28539 20.0446C1.81714 18.9099 1.58301 17.6905 1.58301 16.3865C1.58301 15.0655 1.81714 13.8461 2.28539 12.7284C2.75365 11.6107 3.40587 10.6368 4.24206 9.80701C5.07821 8.96023 6.05654 8.3082 7.17703 7.85093C8.31422 7.37675 9.55174 7.13965 10.8896 7.13965C12.2108 7.13965 13.4316 7.37675 14.5521 7.85093C15.6893 8.3082 16.676 8.96023 17.5122 9.80701C18.365 10.6368 19.0256 11.6191 19.4939 12.7538C19.9621 13.8715 20.1963 15.0909 20.1963 16.4119C20.1963 17.7159 19.9621 18.9353 19.4939 20.07C19.0256 21.1877 18.3734 22.17 17.5372 23.0168C16.7011 23.8466 15.7144 24.4986 14.5772 24.9728C13.4567 25.447 12.2443 25.6841 10.9398 25.6841ZM10.8896 22.0514C11.9432 22.0514 12.863 21.8143 13.649 21.3401C14.4517 20.8659 15.0705 20.2054 15.5053 19.3587C15.9401 18.495 16.1576 17.5042 16.1576 16.3865C16.1576 15.5397 16.0321 14.7776 15.7813 14.1002C15.5304 13.4058 15.1709 12.8131 14.7026 12.3219C14.2344 11.8139 13.6741 11.4328 13.0219 11.1788C12.3864 10.9078 11.6757 10.7723 10.8896 10.7723C9.83606 10.7723 8.90791 11.0094 8.10518 11.4836C7.31917 11.9409 6.70876 12.5929 6.27395 13.4397C5.83913 14.2695 5.62175 15.2518 5.62175 16.3865C5.62175 17.2332 5.74716 18.0038 5.99802 18.6982C6.24886 19.3925 6.60007 19.9937 7.05159 20.5018C7.51986 20.9929 8.08009 21.374 8.73232 21.645C9.38451 21.9159 10.1036 22.0514 10.8896 22.0514ZM24.2015 25.3793V7.4445H26.9609L28.1399 11.0264V25.3793H24.2015ZM36.4181 25.3793L25.9825 11.8393L26.9609 7.4445L37.3963 20.9845L36.4181 25.3793ZM36.4181 25.3793L35.3644 21.7974V7.4445H39.3029V25.3793H36.4181ZM44.2267 25.3793V7.4445H48.1649V25.3793H44.2267ZM47.2368 25.3793V21.9244H56.9448V25.3793H47.2368ZM47.2368 17.8853V14.5574H56.0669V17.8853H47.2368ZM47.2368 10.8739V7.4445H56.8192V10.8739H47.2368Z" fill="currentColor" fill-opacity="0.85"/>
	<path d="M69.2499 25.6588C67.9287 25.6588 66.6996 25.4302 65.5623 24.9729C64.4419 24.4987 63.4552 23.8382 62.6023 22.9915C61.7663 22.1447 61.1139 21.1624 60.6456 20.0447C60.1774 18.91 59.9434 17.6906 59.9434 16.3866C59.9434 15.0825 60.1774 13.8716 60.6456 12.7539C61.1139 11.6192 61.7663 10.6369 62.6023 9.80712C63.4386 8.97727 64.4168 8.33371 65.5373 7.87644C66.6746 7.40227 67.9037 7.16516 69.2248 7.16516C70.6296 7.16516 71.8756 7.3938 72.9625 7.85104C74.0663 8.30831 75.0279 8.93493 75.8473 9.7309L73.2134 12.4236C72.7452 11.9156 72.1766 11.5176 71.5076 11.2297C70.8555 10.9418 70.0946 10.7979 69.2248 10.7979C68.4556 10.7979 67.7448 10.9333 67.0927 11.2043C66.4572 11.4583 65.9053 11.8309 65.437 12.322C64.9854 12.8132 64.626 13.4059 64.3583 14.1003C64.1074 14.7946 63.9821 15.5567 63.9821 16.3866C63.9821 17.2334 64.1074 18.0039 64.3583 18.6983C64.626 19.3926 64.9854 19.9854 65.437 20.4765C65.9053 20.9676 66.4572 21.3487 67.0927 21.6197C67.7448 21.8907 68.4556 22.0261 69.2248 22.0261C70.1279 22.0261 70.914 21.8822 71.5828 21.5943C72.2518 21.3064 72.8288 20.9084 73.3137 20.4003L75.9729 23.0931C75.12 23.8891 74.1415 24.5156 73.0377 24.9729C71.9508 25.4302 70.6882 25.6588 69.2499 25.6588ZM79.6466 25.3794V7.44461H83.5851V25.3794H79.6466ZM82.6821 25.3794V21.8737H91.4367V25.3794H82.6821ZM95.2131 25.3794V7.44461H99.1515V25.3794H95.2131ZM104.067 25.3794V7.44461H108.006V25.3794H104.067ZM107.078 25.3794V21.9245H116.786V25.3794H107.078ZM107.078 17.8854V14.5575H115.908V17.8854H107.078ZM107.078 10.874V7.44461H116.66V10.874H107.078ZM121.006 25.3794V7.44461H123.765L124.944 11.0265V25.3794H121.006ZM133.222 25.3794L122.787 11.8394L123.765 7.44461L134.201 20.9846L133.222 25.3794ZM133.222 25.3794L132.169 21.7975V7.44461H136.107V25.3794H133.222ZM145.371 25.3794V7.69862H149.309V25.3794H145.371ZM139.827 10.9249V7.44461H154.853V10.9249H139.827Z" fill="currentColor"/>
</svg>
