<svg fill="none" xmlns="http://www.w3.org/2000/svg" viewBox="0 0 1175 889"><path d="m1174.14 355.903-29.88-21.468 9.11-21.068V112.095L1033.12 0H117.189L.139 117.05v535.656l26.974 48.541H.14v187.46h1174v-187.46h-26.97l26.97-48.541V355.903ZM254.706 652.706V485.413h97.634l39.083-70.309V276.235h35.88v376.471l26.973 48.541H227.734l26.972-48.541Zm400.892 48.541 26.973-48.541V276.235h17.465v286.694l25.772 61.453 76.915 76.865H655.598Z" fill="#fff"/><path d="m1119.69 341.239 13.81-31.977V120.751L1025.31 19.865H125.395l-105.39 105.39V647.55l30.876 55.597h153.081l30.876-55.597V465.545h105.84l30.876-55.598v-153.58h75.565V647.55l30.876 55.597h153.781l30.876-55.597V256.367h57.199v302.557l22.669 54.146 90.127 90.077h290.743l30.88-55.597V366.06l-34.58-24.821Z" fill="#322A2A"/><path d="m185.249 433.77 17.815 205.525-17.815 32.077H69.6l-17.815-32.077L69.6 195.617l76.365-76.365h187.46l17.815 73.212-17.815 32.078H185.249v105.99h136.716l17.815 71.161-17.815 32.077H185.249Z" fill="#65ADB9"/><path d="M717.351 224.59H613.112l17.815 414.754-17.815 32.077H496.763l-17.815-32.077 17.815-414.754H388.671l-17.815-32.077 17.815-73.212h328.68l17.815 73.212-17.815 32.077Z" fill="#9FC41E"/><path d="m1104.68 441.374 17.82 197.969-17.82 32.077H845.761l-76.365-76.365-17.815-42.486 17.815-433.219h236.354l78.16 72.862 17.82 110.544-17.82 41.335-54.24 43.487 75.01 53.846v-.05ZM969.616 338.186V224.589h-84.522v113.597h84.522Zm18.716 228.595V441.424H885.144v125.357h103.188Z" fill="#E65014"/><path d="M51.785 138.419v500.927h151.279V401.744H339.78V262.925H203.064v-70.409H351.24V51.646H138.559l-86.774 86.773Z" fill="#0787C1"/><path d="M370.807 192.516h108.092v446.83h151.98v-446.83h104.289V51.646H370.807v140.87Z" fill="#798B2F"/><path d="m1059.14 336.838 42.59-34.179V134.566l-88.93-82.92H751.629v500.876l86.824 86.774h284.097V382.327l-63.36-45.539-.05.05ZM902.908 499.077V409.3h67.608v89.777h-67.608Zm0-228.595v-77.967H951.8v77.967h-48.892Z" fill="#B11917"/><path d="M185.246 383.927v237.602H69.598V145.774l76.365-76.365h187.459V174.7H185.246v105.99h136.717v103.188H185.246v.05ZM717.348 174.748H613.11v446.78H496.761v-446.78H388.668V69.458h328.68v105.29ZM1104.68 391.532v229.996H845.758l-76.365-76.365V69.458h236.347l78.17 72.862v151.829l-54.25 43.487 75.02 53.846v.05ZM969.614 288.344V174.748h-84.522v113.596h84.522Zm18.716 228.595V391.582H885.142v125.357H988.33Z" fill="#fff"/><path d="M1154.27 721.112H20.005v147.726H1154.27V721.112Z" fill="#322A2A"/><path d="M71.45 802.433v38.933H52.483v-77.967l12.511-12.51H95.72v17.214H71.45v17.465h22.419v16.915h-22.42v-.05ZM129.248 750.889h43.937v17.214h-25.171v17.465h23.92v16.915h-23.67v21.768h25.522v17.165h-44.538v-90.527ZM206.364 750.889h43.938v17.214H225.13v17.465h23.921v16.915H225.38v21.768h25.522v17.165h-44.538v-90.527ZM283.481 750.89h38.933l14.563 14.312v63.604l-12.711 12.511h-40.785V750.84v.05Zm34.479 73.312v-56.097h-15.513v56.097h15.513ZM478.849 768.103h-17.065v73.263h-19.066v-73.263h-17.715v-17.214h53.846v17.214ZM531.089 788.07h16.264v-37.181h18.966v90.477h-18.966v-36.181h-16.264v36.181h-18.966v-90.477h18.966v37.181ZM600.049 750.889h43.938v17.214h-25.172v17.465h23.921v16.915h-23.67v21.768h25.521v17.165h-44.538v-90.527ZM786.91 803.684v37.682h-42.436l-12.511-12.511v-77.966h38.783l12.811 11.96v24.921l-8.907 7.156 12.21 8.808.05-.05Zm-22.069-16.915v-18.716H750.93v18.716h13.911Zm3.053 37.432v-20.517H750.93v20.517h16.964ZM820.54 750.889h43.937v17.214h-25.171v17.465h23.92v16.915h-23.67v21.768h25.522v17.165H820.54v-90.527ZM916.668 841.365h-19.017V765.25l14.563-14.312h39.533v90.477h-18.966v-29.726h-16.164v29.726l.051-.05Zm16.163-46.94v-26.323h-16.163v26.323h16.163ZM1035.57 841.367h-49.743v-28.174h18.963v11.009h11.76V809.79l-30.072-22.719V750.84h48.542v26.923h-17.22v-9.658h-12.41v11.81l30.18 22.669V841.367ZM1123.25 768.103h-17.07v73.263h-19.07v-73.263h-17.71v-17.214h53.85v17.214Z" fill="#E0E0E0"/></svg>
